<?xml version="1.0" encoding="utf-8" standalone="no"?>
<!DOCTYPE svg PUBLIC "-//W3C//DTD SVG 1.1//EN"
  "http://www.w3.org/Graphics/SVG/1.1/DTD/svg11.dtd">
<svg xmlns:xlink="http://www.w3.org/1999/xlink" width="820.569594pt" height="386.157734pt" viewBox="0 0 820.569594 386.157734" xmlns="http://www.w3.org/2000/svg" version="1.1">
 <metadata>
  <rdf:RDF xmlns:dc="http://purl.org/dc/elements/1.1/" xmlns:cc="http://creativecommons.org/ns#" xmlns:rdf="http://www.w3.org/1999/02/22-rdf-syntax-ns#">
   <cc:Work>
    <dc:type rdf:resource="http://purl.org/dc/dcmitype/StillImage"/>
    <dc:date>2026-06-29T21:16:27.112662</dc:date>
    <dc:format>image/svg+xml</dc:format>
    <dc:creator>
     <cc:Agent>
      <dc:title>Matplotlib v3.11.0, https://matplotlib.org/</dc:title>
     </cc:Agent>
    </dc:creator>
   </cc:Work>
  </rdf:RDF>
 </metadata>
 <defs>
  <style type="text/css">*{stroke-linejoin: round; stroke-linecap: butt}</style>
 </defs>
 <g id="figure_1">
  <g id="patch_1">
   <path d="M 0 386.157734 
L 820.569594 386.157734 
L 820.569594 0 
L 0 0 
z
" style="fill: #ffffff"/>
  </g>
  <g id="axes_1">
   <g id="patch_2">
    <path d="M 40.233594 199.857567 
L 813.369594 199.857567 
L 813.369594 23.423219 
L 40.233594 23.423219 
z
" style="fill: #ffffff"/>
   </g>
   <g id="FillBetweenPolyCollection_1">
    <path d="M 77.844551 31.442962 
L 77.844551 191.837824 
L 81.517783 191.837824 
L 81.517783 191.837824 
L 88.864247 191.837824 
L 88.864247 191.837824 
L 92.537479 191.837824 
L 92.537479 31.442962 
L 92.537479 31.442962 
L 88.864247 31.442962 
L 88.864247 31.442962 
L 81.517783 31.442962 
L 81.517783 31.442962 
L 77.844551 31.442962 
z
" clip-path="url(#pf51dfad8bc)" style="fill: #cfe0f2; fill-opacity: 0.45; stroke: #cfe0f2; stroke-opacity: 0.45"/>
    <path d="M 136.616264 31.442962 
L 136.616264 191.837824 
L 140.289496 191.837824 
L 140.289496 191.837824 
L 147.63596 191.837824 
L 147.63596 191.837824 
L 154.982424 191.837824 
L 154.982424 191.837824 
L 162.328888 191.837824 
L 162.328888 191.837824 
L 169.675352 191.837824 
L 169.675352 191.837824 
L 177.021816 191.837824 
L 177.021816 191.837824 
L 184.36828 191.837824 
L 184.36828 191.837824 
L 191.714744 191.837824 
L 191.714744 191.837824 
L 199.061208 191.837824 
L 199.061208 191.837824 
L 206.407672 191.837824 
L 206.407672 191.837824 
L 213.754136 191.837824 
L 213.754136 191.837824 
L 217.427368 191.837824 
L 217.427368 31.442962 
L 217.427368 31.442962 
L 213.754136 31.442962 
L 213.754136 31.442962 
L 206.407672 31.442962 
L 206.407672 31.442962 
L 199.061208 31.442962 
L 199.061208 31.442962 
L 191.714744 31.442962 
L 191.714744 31.442962 
L 184.36828 31.442962 
L 184.36828 31.442962 
L 177.021816 31.442962 
L 177.021816 31.442962 
L 169.675352 31.442962 
L 169.675352 31.442962 
L 162.328888 31.442962 
L 162.328888 31.442962 
L 154.982424 31.442962 
L 154.982424 31.442962 
L 147.63596 31.442962 
L 147.63596 31.442962 
L 140.289496 31.442962 
L 140.289496 31.442962 
L 136.616264 31.442962 
z
" clip-path="url(#pf51dfad8bc)" style="fill: #cfe0f2; fill-opacity: 0.45; stroke: #cfe0f2; stroke-opacity: 0.45"/>
    <path d="M 232.120296 31.442962 
L 232.120296 191.837824 
L 235.793528 191.837824 
L 235.793528 191.837824 
L 243.139992 191.837824 
L 243.139992 191.837824 
L 250.486456 191.837824 
L 250.486456 191.837824 
L 254.159688 191.837824 
L 254.159688 31.442962 
L 254.159688 31.442962 
L 250.486456 31.442962 
L 250.486456 31.442962 
L 243.139992 31.442962 
L 243.139992 31.442962 
L 235.793528 31.442962 
L 235.793528 31.442962 
L 232.120296 31.442962 
z
" clip-path="url(#pf51dfad8bc)" style="fill: #cfe0f2; fill-opacity: 0.45; stroke: #cfe0f2; stroke-opacity: 0.45"/>
    <path d="M 599.443499 31.442962 
L 599.443499 191.837824 
L 603.116731 191.837824 
L 603.116731 191.837824 
L 610.463195 191.837824 
L 610.463195 191.837824 
L 614.136427 191.837824 
L 614.136427 31.442962 
L 614.136427 31.442962 
L 610.463195 31.442962 
L 610.463195 31.442962 
L 603.116731 31.442962 
L 603.116731 31.442962 
L 599.443499 31.442962 
z
" clip-path="url(#pf51dfad8bc)" style="fill: #cfe0f2; fill-opacity: 0.45; stroke: #cfe0f2; stroke-opacity: 0.45"/>
    <path d="M 665.561676 31.442962 
L 665.561676 191.837824 
L 669.234908 191.837824 
L 669.234908 191.837824 
L 672.90814 191.837824 
L 672.90814 31.442962 
L 672.90814 31.442962 
L 669.234908 31.442962 
L 669.234908 31.442962 
L 665.561676 31.442962 
z
" clip-path="url(#pf51dfad8bc)" style="fill: #cfe0f2; fill-opacity: 0.45; stroke: #cfe0f2; stroke-opacity: 0.45"/>
    <path d="M 702.293996 31.442962 
L 702.293996 191.837824 
L 705.967228 191.837824 
L 705.967228 191.837824 
L 713.313692 191.837824 
L 713.313692 191.837824 
L 720.660156 191.837824 
L 720.660156 191.837824 
L 728.00662 191.837824 
L 728.00662 191.837824 
L 735.353084 191.837824 
L 735.353084 191.837824 
L 742.699548 191.837824 
L 742.699548 191.837824 
L 750.046012 191.837824 
L 750.046012 191.837824 
L 757.392476 191.837824 
L 757.392476 191.837824 
L 764.73894 191.837824 
L 764.73894 191.837824 
L 772.085404 191.837824 
L 772.085404 191.837824 
L 775.758636 191.837824 
L 775.758636 31.442962 
L 775.758636 31.442962 
L 772.085404 31.442962 
L 772.085404 31.442962 
L 764.73894 31.442962 
L 764.73894 31.442962 
L 757.392476 31.442962 
L 757.392476 31.442962 
L 750.046012 31.442962 
L 750.046012 31.442962 
L 742.699548 31.442962 
L 742.699548 31.442962 
L 735.353084 31.442962 
L 735.353084 31.442962 
L 728.00662 31.442962 
L 728.00662 31.442962 
L 720.660156 31.442962 
L 720.660156 31.442962 
L 713.313692 31.442962 
L 713.313692 31.442962 
L 705.967228 31.442962 
L 705.967228 31.442962 
L 702.293996 31.442962 
z
" clip-path="url(#pf51dfad8bc)" style="fill: #cfe0f2; fill-opacity: 0.45; stroke: #cfe0f2; stroke-opacity: 0.45"/>
   </g>
   <g id="matplotlib.axis_1">
    <g id="xtick_1">
     <g id="line2d_1">
      <defs>
       <path id="m67ae6a1125" d="M 0 0 
L 0 3.5 
" style="stroke: #252525; stroke-width: 0.8"/>
      </defs>
      <g>
       <use xlink:href="#m67ae6a1125" x="77.844551" y="199.857567" style="fill: #252525; stroke: #252525; stroke-width: 0.8"/>
      </g>
     </g>
    </g>
    <g id="xtick_2">
     <g id="line2d_2">
      <g>
       <use xlink:href="#m67ae6a1125" x="166.00212" y="199.857567" style="fill: #252525; stroke: #252525; stroke-width: 0.8"/>
      </g>
     </g>
    </g>
    <g id="xtick_3">
     <g id="line2d_3">
      <g>
       <use xlink:href="#m67ae6a1125" x="254.159688" y="199.857567" style="fill: #252525; stroke: #252525; stroke-width: 0.8"/>
      </g>
     </g>
    </g>
    <g id="xtick_4">
     <g id="line2d_4">
      <g>
       <use xlink:href="#m67ae6a1125" x="342.317257" y="199.857567" style="fill: #252525; stroke: #252525; stroke-width: 0.8"/>
      </g>
     </g>
    </g>
    <g id="xtick_5">
     <g id="line2d_5">
      <g>
       <use xlink:href="#m67ae6a1125" x="430.474826" y="199.857567" style="fill: #252525; stroke: #252525; stroke-width: 0.8"/>
      </g>
     </g>
    </g>
    <g id="xtick_6">
     <g id="line2d_6">
      <g>
       <use xlink:href="#m67ae6a1125" x="518.632394" y="199.857567" style="fill: #252525; stroke: #252525; stroke-width: 0.8"/>
      </g>
     </g>
    </g>
    <g id="xtick_7">
     <g id="line2d_7">
      <g>
       <use xlink:href="#m67ae6a1125" x="606.789963" y="199.857567" style="fill: #252525; stroke: #252525; stroke-width: 0.8"/>
      </g>
     </g>
    </g>
    <g id="xtick_8">
     <g id="line2d_8">
      <g>
       <use xlink:href="#m67ae6a1125" x="694.947532" y="199.857567" style="fill: #252525; stroke: #252525; stroke-width: 0.8"/>
      </g>
     </g>
    </g>
    <g id="xtick_9">
     <g id="line2d_9">
      <g>
       <use xlink:href="#m67ae6a1125" x="783.1051" y="199.857567" style="fill: #252525; stroke: #252525; stroke-width: 0.8"/>
      </g>
     </g>
    </g>
   </g>
   <g id="matplotlib.axis_2">
    <g id="ytick_1">
     <g id="line2d_10">
      <path d="M 40.233594 191.837824 
L 813.369594 191.837824 
" clip-path="url(#pf51dfad8bc)" style="fill: none; stroke: #d9dee7; stroke-opacity: 0.7; stroke-width: 0.8; stroke-linecap: square"/>
     </g>
     <g id="line2d_11">
      <defs>
       <path id="mea6de2d788" d="M 0 0 
L -3.5 0 
" style="stroke: #252525; stroke-width: 0.8"/>
      </defs>
      <g>
       <use xlink:href="#mea6de2d788" x="40.233594" y="191.837824" style="fill: #252525; stroke: #252525; stroke-width: 0.8"/>
      </g>
     </g>
     <g id="text_1">
      <text style="font-size: 10.2px; font-family: 'Arial Unicode MS', 'Arial', 'Helvetica', 'DejaVu Sans', 'Bitstream Vera Sans', 'Computer Modern Sans Serif', 'Lucida Grande', 'Verdana', 'Geneva', 'Lucid', 'Avant Garde', sans-serif; text-anchor: end; fill: #252525" x="33.233594" y="195.550764" transform="rotate(-0 33.233594 195.550764)">0</text>
     </g>
    </g>
    <g id="ytick_2">
     <g id="line2d_12">
      <path d="M 40.233594 166.744074 
L 813.369594 166.744074 
" clip-path="url(#pf51dfad8bc)" style="fill: none; stroke: #d9dee7; stroke-opacity: 0.7; stroke-width: 0.8; stroke-linecap: square"/>
     </g>
     <g id="line2d_13">
      <g>
       <use xlink:href="#mea6de2d788" x="40.233594" y="166.744074" style="fill: #252525; stroke: #252525; stroke-width: 0.8"/>
      </g>
     </g>
     <g id="text_2">
      <text style="font-size: 10.2px; font-family: 'Arial Unicode MS', 'Arial', 'Helvetica', 'DejaVu Sans', 'Bitstream Vera Sans', 'Computer Modern Sans Serif', 'Lucida Grande', 'Verdana', 'Geneva', 'Lucid', 'Avant Garde', sans-serif; text-anchor: end; fill: #252525" x="33.233594" y="170.457013" transform="rotate(-0 33.233594 170.457013)">2</text>
     </g>
    </g>
    <g id="ytick_3">
     <g id="line2d_14">
      <path d="M 40.233594 141.650323 
L 813.369594 141.650323 
" clip-path="url(#pf51dfad8bc)" style="fill: none; stroke: #d9dee7; stroke-opacity: 0.7; stroke-width: 0.8; stroke-linecap: square"/>
     </g>
     <g id="line2d_15">
      <g>
       <use xlink:href="#mea6de2d788" x="40.233594" y="141.650323" style="fill: #252525; stroke: #252525; stroke-width: 0.8"/>
      </g>
     </g>
     <g id="text_3">
      <text style="font-size: 10.2px; font-family: 'Arial Unicode MS', 'Arial', 'Helvetica', 'DejaVu Sans', 'Bitstream Vera Sans', 'Computer Modern Sans Serif', 'Lucida Grande', 'Verdana', 'Geneva', 'Lucid', 'Avant Garde', sans-serif; text-anchor: end; fill: #252525" x="33.233594" y="145.363263" transform="rotate(-0 33.233594 145.363263)">4</text>
     </g>
    </g>
    <g id="ytick_4">
     <g id="line2d_16">
      <path d="M 40.233594 116.556572 
L 813.369594 116.556572 
" clip-path="url(#pf51dfad8bc)" style="fill: none; stroke: #d9dee7; stroke-opacity: 0.7; stroke-width: 0.8; stroke-linecap: square"/>
     </g>
     <g id="line2d_17">
      <g>
       <use xlink:href="#mea6de2d788" x="40.233594" y="116.556572" style="fill: #252525; stroke: #252525; stroke-width: 0.8"/>
      </g>
     </g>
     <g id="text_4">
      <text style="font-size: 10.2px; font-family: 'Arial Unicode MS', 'Arial', 'Helvetica', 'DejaVu Sans', 'Bitstream Vera Sans', 'Computer Modern Sans Serif', 'Lucida Grande', 'Verdana', 'Geneva', 'Lucid', 'Avant Garde', sans-serif; text-anchor: end; fill: #252525" x="33.233594" y="120.269512" transform="rotate(-0 33.233594 120.269512)">6</text>
     </g>
    </g>
    <g id="ytick_5">
     <g id="line2d_18">
      <path d="M 40.233594 91.462822 
L 813.369594 91.462822 
" clip-path="url(#pf51dfad8bc)" style="fill: none; stroke: #d9dee7; stroke-opacity: 0.7; stroke-width: 0.8; stroke-linecap: square"/>
     </g>
     <g id="line2d_19">
      <g>
       <use xlink:href="#mea6de2d788" x="40.233594" y="91.462822" style="fill: #252525; stroke: #252525; stroke-width: 0.8"/>
      </g>
     </g>
     <g id="text_5">
      <text style="font-size: 10.2px; font-family: 'Arial Unicode MS', 'Arial', 'Helvetica', 'DejaVu Sans', 'Bitstream Vera Sans', 'Computer Modern Sans Serif', 'Lucida Grande', 'Verdana', 'Geneva', 'Lucid', 'Avant Garde', sans-serif; text-anchor: end; fill: #252525" x="33.233594" y="95.175761" transform="rotate(-0 33.233594 95.175761)">8</text>
     </g>
    </g>
    <g id="ytick_6">
     <g id="line2d_20">
      <path d="M 40.233594 66.369071 
L 813.369594 66.369071 
" clip-path="url(#pf51dfad8bc)" style="fill: none; stroke: #d9dee7; stroke-opacity: 0.7; stroke-width: 0.8; stroke-linecap: square"/>
     </g>
     <g id="line2d_21">
      <g>
       <use xlink:href="#mea6de2d788" x="40.233594" y="66.369071" style="fill: #252525; stroke: #252525; stroke-width: 0.8"/>
      </g>
     </g>
     <g id="text_6">
      <text style="font-size: 10.2px; font-family: 'Arial Unicode MS', 'Arial', 'Helvetica', 'DejaVu Sans', 'Bitstream Vera Sans', 'Computer Modern Sans Serif', 'Lucida Grande', 'Verdana', 'Geneva', 'Lucid', 'Avant Garde', sans-serif; text-anchor: end; fill: #252525" x="33.233594" y="70.082011" transform="rotate(-0 33.233594 70.082011)">10</text>
     </g>
    </g>
    <g id="ytick_7">
     <g id="line2d_22">
      <path d="M 40.233594 41.275321 
L 813.369594 41.275321 
" clip-path="url(#pf51dfad8bc)" style="fill: none; stroke: #d9dee7; stroke-opacity: 0.7; stroke-width: 0.8; stroke-linecap: square"/>
     </g>
     <g id="line2d_23">
      <g>
       <use xlink:href="#mea6de2d788" x="40.233594" y="41.275321" style="fill: #252525; stroke: #252525; stroke-width: 0.8"/>
      </g>
     </g>
     <g id="text_7">
      <text style="font-size: 10.2px; font-family: 'Arial Unicode MS', 'Arial', 'Helvetica', 'DejaVu Sans', 'Bitstream Vera Sans', 'Computer Modern Sans Serif', 'Lucida Grande', 'Verdana', 'Geneva', 'Lucid', 'Avant Garde', sans-serif; text-anchor: end; fill: #252525" x="33.233594" y="44.98826" transform="rotate(-0 33.233594 44.98826)">12</text>
     </g>
    </g>
    <g id="text_8">
     <text style="font-size: 10.2px; font-family: 'Arial Unicode MS', 'Arial', 'Helvetica', 'DejaVu Sans', 'Bitstream Vera Sans', 'Computer Modern Sans Serif', 'Lucida Grande', 'Verdana', 'Geneva', 'Lucid', 'Avant Garde', sans-serif; text-anchor: middle" x="15.747281" y="111.640393" transform="rotate(-90 15.747281 111.640393)">负荷（kWh/15min）</text>
    </g>
   </g>
   <g id="line2d_24">
    <path d="M 77.844551 89.037093 
L 85.191015 89.037093 
L 92.537479 89.037093 
L 99.883943 191.837824 
L 107.230407 191.837824 
L 114.576871 191.837824 
L 121.923335 191.837824 
L 129.2698 191.837824 
L 136.616264 148.024136 
L 143.962728 148.024136 
L 151.309192 148.024136 
L 158.655656 56.95055 
L 166.00212 100.764239 
L 173.348584 100.764239 
L 180.695048 77.393592 
L 188.041512 77.393592 
L 195.387976 77.393592 
L 202.73444 77.393592 
L 210.080904 77.393592 
L 217.427368 77.393592 
L 224.773832 191.837824 
L 232.120296 95.377447 
L 239.46676 95.377447 
L 246.813224 95.377447 
L 254.159688 95.377447 
L 261.506153 191.837824 
L 268.852617 191.837824 
L 276.199081 191.837824 
L 283.545545 191.837824 
L 290.892009 191.837824 
L 298.238473 191.837824 
L 305.584937 191.837824 
L 312.931401 191.837824 
L 320.277865 191.837824 
L 327.624329 191.837824 
L 334.970793 191.837824 
L 342.317257 191.837824 
L 349.663721 191.837824 
L 357.010185 191.837824 
L 364.356649 191.837824 
L 371.703113 191.837824 
L 379.049577 191.837824 
L 386.396041 191.837824 
L 393.742506 191.837824 
L 401.08897 191.837824 
L 408.435434 191.837824 
L 415.781898 191.837824 
L 423.128362 191.837824 
L 430.474826 191.837824 
L 437.82129 191.837824 
L 445.167754 191.837824 
L 452.514218 191.837824 
L 459.860682 191.837824 
L 467.207146 191.837824 
L 474.55361 191.837824 
L 481.900074 191.837824 
L 489.246538 191.837824 
L 496.593002 191.837824 
L 503.939466 191.837824 
L 511.28593 191.837824 
L 518.632394 191.837824 
L 525.978858 191.837824 
L 533.325323 191.837824 
L 540.671787 191.837824 
L 548.018251 191.837824 
L 555.364715 191.837824 
L 562.711179 191.837824 
L 570.057643 191.837824 
L 577.404107 191.837824 
L 584.750571 191.837824 
L 592.097035 191.837824 
L 599.443499 141.416115 
L 606.789963 141.416115 
L 614.136427 141.416115 
L 621.482891 191.837824 
L 628.829355 191.837824 
L 636.175819 191.837824 
L 643.522283 191.837824 
L 650.868747 191.837824 
L 658.215211 191.837824 
L 665.561676 80.923447 
L 672.90814 80.923447 
L 680.254604 191.837824 
L 687.601068 191.837824 
L 694.947532 191.837824 
L 702.293996 97.504142 
L 709.64046 97.504142 
L 716.986924 97.504142 
L 724.333388 97.504142 
L 731.679852 97.504142 
L 739.026316 97.504142 
L 746.37278 97.504142 
L 753.719244 46.024313 
L 761.065708 140.357995 
L 768.412172 140.357995 
L 775.758636 140.357995 
" clip-path="url(#pf51dfad8bc)" style="fill: none; stroke: #252525; stroke-width: 2.2; stroke-linecap: square"/>
   </g>
   <g id="line2d_25">
    <path d="M 77.844551 89.037093 
L 85.191015 89.037093 
L 92.537479 89.037093 
L 99.883943 89.037093 
L 107.230407 191.837824 
L 114.576871 191.837824 
L 121.923335 191.837824 
L 129.2698 191.837824 
L 136.616264 191.837824 
L 143.962728 148.024136 
L 151.309192 148.024136 
L 158.655656 148.024136 
L 166.00212 56.95055 
L 173.348584 100.764239 
L 180.695048 100.764239 
L 188.041512 77.393592 
L 195.387976 77.393592 
L 202.73444 77.393592 
L 210.080904 77.393592 
L 217.427368 77.393592 
L 224.773832 77.393592 
L 232.120296 191.837824 
L 239.46676 95.377447 
L 246.813224 95.377447 
L 254.159688 95.377447 
L 261.506153 95.377447 
L 268.852617 191.837824 
L 276.199081 191.837824 
L 283.545545 191.837824 
L 290.892009 191.837824 
L 298.238473 191.837824 
L 305.584937 191.837824 
L 312.931401 191.837824 
L 320.277865 191.837824 
L 327.624329 191.837824 
L 334.970793 191.837824 
L 342.317257 191.837824 
L 349.663721 191.837824 
L 357.010185 191.837824 
L 364.356649 191.837824 
L 371.703113 191.837824 
L 379.049577 191.837824 
L 386.396041 191.837824 
L 393.742506 191.837824 
L 401.08897 191.837824 
L 408.435434 191.837824 
L 415.781898 191.837824 
L 423.128362 191.837824 
L 430.474826 191.837824 
L 437.82129 191.837824 
L 445.167754 191.837824 
L 452.514218 191.837824 
L 459.860682 191.837824 
L 467.207146 191.837824 
L 474.55361 191.837824 
L 481.900074 191.837824 
L 489.246538 191.837824 
L 496.593002 191.837824 
L 503.939466 191.837824 
L 511.28593 191.837824 
L 518.632394 191.837824 
L 525.978858 191.837824 
L 533.325323 191.837824 
L 540.671787 191.837824 
L 548.018251 191.837824 
L 555.364715 191.837824 
L 562.711179 191.837824 
L 570.057643 191.837824 
L 577.404107 191.837824 
L 584.750571 191.837824 
L 592.097035 191.837824 
L 599.443499 191.837824 
L 606.789963 141.416115 
L 614.136427 141.416115 
L 621.482891 141.416115 
L 628.829355 191.837824 
L 636.175819 191.837824 
L 643.522283 191.837824 
L 650.868747 191.837824 
L 658.215211 191.837824 
L 665.561676 191.837824 
L 672.90814 80.923447 
L 680.254604 80.923447 
L 687.601068 191.837824 
L 694.947532 191.837824 
L 702.293996 191.837824 
L 709.64046 97.504142 
L 716.986924 97.504142 
L 724.333388 97.504142 
L 731.679852 97.504142 
L 739.026316 97.504142 
L 746.37278 97.504142 
L 753.719244 97.504142 
L 761.065708 46.024313 
L 768.412172 140.357995 
L 775.758636 140.357995 
" clip-path="url(#pf51dfad8bc)" style="fill: none; stroke-dasharray: 7.4,3.2; stroke-dashoffset: 0; stroke: #0e4a82; stroke-width: 2"/>
   </g>
   <g id="patch_3">
    <path d="M 40.233594 199.857567 
L 40.233594 23.423219 
" style="fill: none; stroke: #252525; stroke-width: 1.05; stroke-linejoin: miter; stroke-linecap: square"/>
   </g>
   <g id="patch_4">
    <path d="M 40.233594 199.857567 
L 813.369594 199.857567 
" style="fill: none; stroke: #252525; stroke-width: 1.05; stroke-linejoin: miter; stroke-linecap: square"/>
   </g>
   <g id="text_9">
    <text style="font-weight: 700; font-size: 12.2px; font-family: 'Arial Unicode MS', 'Arial', 'Helvetica', 'DejaVu Sans', 'Bitstream Vera Sans', 'Computer Modern Sans Serif', 'Lucida Grande', 'Verdana', 'Geneva', 'Lucid', 'Avant Garde', sans-serif; text-anchor: start" x="40.233594" y="17.423219" transform="rotate(-0 40.233594 17.423219)">真实负荷、预测曲线与事件窗口</text>
   </g>
   <g id="PathCollection_1">
    <defs>
     <path id="mb4f1ac7106" d="M 0 -3.24037 
L -3.24037 3.24037 
L 3.24037 3.24037 
z
" style="stroke: #d77a2d"/>
    </defs>
    <g clip-path="url(#pf51dfad8bc)">
     <use xlink:href="#mb4f1ac7106" x="136.616264" y="148.024136" style="fill: #d77a2d; stroke: #d77a2d"/>
     <use xlink:href="#mb4f1ac7106" x="158.655656" y="56.95055" style="fill: #d77a2d; stroke: #d77a2d"/>
     <use xlink:href="#mb4f1ac7106" x="180.695048" y="77.393592" style="fill: #d77a2d; stroke: #d77a2d"/>
     <use xlink:href="#mb4f1ac7106" x="232.120296" y="95.377447" style="fill: #d77a2d; stroke: #d77a2d"/>
     <use xlink:href="#mb4f1ac7106" x="599.443499" y="141.416115" style="fill: #d77a2d; stroke: #d77a2d"/>
     <use xlink:href="#mb4f1ac7106" x="665.561676" y="80.923447" style="fill: #d77a2d; stroke: #d77a2d"/>
     <use xlink:href="#mb4f1ac7106" x="702.293996" y="97.504142" style="fill: #d77a2d; stroke: #d77a2d"/>
     <use xlink:href="#mb4f1ac7106" x="753.719244" y="46.024313" style="fill: #d77a2d; stroke: #d77a2d"/>
    </g>
   </g>
   <g id="PathCollection_2">
    <defs>
     <path id="m7706369aa6" d="M -0 3.24037 
L 3.24037 -3.24037 
L -3.24037 -3.24037 
z
" style="stroke: #4e9a63"/>
    </defs>
    <g clip-path="url(#pf51dfad8bc)">
     <use xlink:href="#m7706369aa6" x="92.537479" y="89.037093" style="fill: #4e9a63; stroke: #4e9a63"/>
     <use xlink:href="#m7706369aa6" x="158.655656" y="56.95055" style="fill: #4e9a63; stroke: #4e9a63"/>
     <use xlink:href="#m7706369aa6" x="173.348584" y="100.764239" style="fill: #4e9a63; stroke: #4e9a63"/>
     <use xlink:href="#m7706369aa6" x="217.427368" y="77.393592" style="fill: #4e9a63; stroke: #4e9a63"/>
     <use xlink:href="#m7706369aa6" x="254.159688" y="95.377447" style="fill: #4e9a63; stroke: #4e9a63"/>
     <use xlink:href="#m7706369aa6" x="614.136427" y="141.416115" style="fill: #4e9a63; stroke: #4e9a63"/>
     <use xlink:href="#m7706369aa6" x="672.90814" y="80.923447" style="fill: #4e9a63; stroke: #4e9a63"/>
     <use xlink:href="#m7706369aa6" x="753.719244" y="46.024313" style="fill: #4e9a63; stroke: #4e9a63"/>
     <use xlink:href="#m7706369aa6" x="775.758636" y="140.357995" style="fill: #4e9a63; stroke: #4e9a63"/>
    </g>
   </g>
   <g id="legend_1">
    <g id="patch_5">
     <path d="M 48.063594 38.543547 
L 65.463594 38.543547 
L 65.463594 32.453547 
L 48.063594 32.453547 
z
" style="fill: #cfe0f2; fill-opacity: 0.45; stroke: #cfe0f2; stroke-opacity: 0.45; stroke-linejoin: miter"/>
    </g>
    <g id="text_10">
     <text style="font-size: 8.7px; font-family: 'Arial Unicode MS', 'Arial', 'Helvetica', 'DejaVu Sans', 'Bitstream Vera Sans', 'Computer Modern Sans Serif', 'Lucida Grande', 'Verdana', 'Geneva', 'Lucid', 'Avant Garde', sans-serif; text-anchor: start" x="72.423594" y="38.543547" transform="rotate(-0 72.423594 38.543547)">活跃充电窗口</text>
    </g>
    <g id="line2d_26">
     <path d="M 142.023594 35.498547 
L 150.723594 35.498547 
L 159.423594 35.498547 
" style="fill: none; stroke: #252525; stroke-width: 2.2; stroke-linecap: square"/>
    </g>
    <g id="text_11">
     <text style="font-size: 8.7px; font-family: 'Arial Unicode MS', 'Arial', 'Helvetica', 'DejaVu Sans', 'Bitstream Vera Sans', 'Computer Modern Sans Serif', 'Lucida Grande', 'Verdana', 'Geneva', 'Lucid', 'Avant Garde', sans-serif; text-anchor: start" x="166.383594" y="38.543547" transform="rotate(-0 166.383594 38.543547)">真实负荷</text>
    </g>
    <g id="line2d_27">
     <path d="M 218.583594 35.498547 
L 227.283594 35.498547 
L 235.983594 35.498547 
" style="fill: none; stroke-dasharray: 7.4,3.2; stroke-dashoffset: 0; stroke: #0e4a82; stroke-width: 2"/>
    </g>
    <g id="text_12">
     <text style="font-size: 8.7px; font-family: 'Arial Unicode MS', 'Arial', 'Helvetica', 'DejaVu Sans', 'Bitstream Vera Sans', 'Computer Modern Sans Serif', 'Lucida Grande', 'Verdana', 'Geneva', 'Lucid', 'Avant Garde', sans-serif; text-anchor: start" x="242.943594" y="38.543547" transform="rotate(-0 242.943594 38.543547)">基线预测曲线</text>
    </g>
    <g id="PathCollection_3">
     <g>
      <use xlink:href="#mb4f1ac7106" x="321.243594" y="36.259797" style="fill: #d77a2d; stroke: #d77a2d"/>
     </g>
    </g>
    <g id="text_13">
     <text style="font-size: 8.7px; font-family: 'Arial Unicode MS', 'Arial', 'Helvetica', 'DejaVu Sans', 'Bitstream Vera Sans', 'Computer Modern Sans Serif', 'Lucida Grande', 'Verdana', 'Geneva', 'Lucid', 'Avant Garde', sans-serif; text-anchor: start" x="336.903594" y="38.543547" transform="rotate(-0 336.903594 38.543547)">接入事件</text>
    </g>
    <g id="PathCollection_4">
     <g>
      <use xlink:href="#m7706369aa6" x="397.803594" y="36.259797" style="fill: #4e9a63; stroke: #4e9a63"/>
     </g>
    </g>
    <g id="text_14">
     <text style="font-size: 8.7px; font-family: 'Arial Unicode MS', 'Arial', 'Helvetica', 'DejaVu Sans', 'Bitstream Vera Sans', 'Computer Modern Sans Serif', 'Lucida Grande', 'Verdana', 'Geneva', 'Lucid', 'Avant Garde', sans-serif; text-anchor: start" x="413.463594" y="38.543547" transform="rotate(-0 413.463594 38.543547)">离站事件</text>
    </g>
   </g>
  </g>
  <g id="axes_2">
   <g id="patch_6">
    <path d="M 40.233594 314.807219 
L 813.369594 314.807219 
L 813.369594 223.916797 
L 40.233594 223.916797 
z
" style="fill: #ffffff"/>
   </g>
   <g id="patch_7">
    <path d="M 75.376139 314.807219 
L 80.312963 314.807219 
L 80.312963 271.526065 
L 75.376139 271.526065 
z
" clip-path="url(#pd6ce042678)" style="fill: #b8bec8; opacity: 0.55"/>
   </g>
   <g id="patch_8">
    <path d="M 82.722603 314.807219 
L 87.659427 314.807219 
L 87.659427 271.526065 
L 82.722603 271.526065 
z
" clip-path="url(#pd6ce042678)" style="fill: #b8bec8; opacity: 0.55"/>
   </g>
   <g id="patch_9">
    <path d="M 90.069067 314.807219 
L 95.005891 314.807219 
L 95.005891 271.526065 
L 90.069067 271.526065 
z
" clip-path="url(#pd6ce042678)" style="fill: #b8bec8; opacity: 0.55"/>
   </g>
   <g id="patch_10">
    <path d="M 97.415531 314.807219 
L 102.352355 314.807219 
L 102.352355 314.807219 
L 97.415531 314.807219 
z
" clip-path="url(#pd6ce042678)" style="fill: #b8bec8; opacity: 0.55"/>
   </g>
   <g id="patch_11">
    <path d="M 104.761995 314.807219 
L 109.698819 314.807219 
L 109.698819 314.807219 
L 104.761995 314.807219 
z
" clip-path="url(#pd6ce042678)" style="fill: #b8bec8; opacity: 0.55"/>
   </g>
   <g id="patch_12">
    <path d="M 112.108459 314.807219 
L 117.045283 314.807219 
L 117.045283 314.807219 
L 112.108459 314.807219 
z
" clip-path="url(#pd6ce042678)" style="fill: #b8bec8; opacity: 0.55"/>
   </g>
   <g id="patch_13">
    <path d="M 119.454924 314.807219 
L 124.391747 314.807219 
L 124.391747 314.807219 
L 119.454924 314.807219 
z
" clip-path="url(#pd6ce042678)" style="fill: #b8bec8; opacity: 0.55"/>
   </g>
   <g id="patch_14">
    <path d="M 126.801388 314.807219 
L 131.738211 314.807219 
L 131.738211 314.807219 
L 126.801388 314.807219 
z
" clip-path="url(#pd6ce042678)" style="fill: #b8bec8; opacity: 0.55"/>
   </g>
   <g id="patch_15">
    <path d="M 134.147852 314.807219 
L 139.084675 314.807219 
L 139.084675 271.526065 
L 134.147852 271.526065 
z
" clip-path="url(#pd6ce042678)" style="fill: #b8bec8; opacity: 0.55"/>
   </g>
   <g id="patch_16">
    <path d="M 141.494316 314.807219 
L 146.43114 314.807219 
L 146.43114 271.526065 
L 141.494316 271.526065 
z
" clip-path="url(#pd6ce042678)" style="fill: #b8bec8; opacity: 0.55"/>
   </g>
   <g id="patch_17">
    <path d="M 148.84078 314.807219 
L 153.777604 314.807219 
L 153.777604 271.526065 
L 148.84078 271.526065 
z
" clip-path="url(#pd6ce042678)" style="fill: #b8bec8; opacity: 0.55"/>
   </g>
   <g id="patch_18">
    <path d="M 156.187244 314.807219 
L 161.124068 314.807219 
L 161.124068 228.244912 
L 156.187244 228.244912 
z
" clip-path="url(#pd6ce042678)" style="fill: #b8bec8; opacity: 0.55"/>
   </g>
   <g id="patch_19">
    <path d="M 163.533708 314.807219 
L 168.470532 314.807219 
L 168.470532 271.526065 
L 163.533708 271.526065 
z
" clip-path="url(#pd6ce042678)" style="fill: #b8bec8; opacity: 0.55"/>
   </g>
   <g id="patch_20">
    <path d="M 170.880172 314.807219 
L 175.816996 314.807219 
L 175.816996 271.526065 
L 170.880172 271.526065 
z
" clip-path="url(#pd6ce042678)" style="fill: #b8bec8; opacity: 0.55"/>
   </g>
   <g id="patch_21">
    <path d="M 178.226636 314.807219 
L 183.16346 314.807219 
L 183.16346 271.526065 
L 178.226636 271.526065 
z
" clip-path="url(#pd6ce042678)" style="fill: #b8bec8; opacity: 0.55"/>
   </g>
   <g id="patch_22">
    <path d="M 185.5731 314.807219 
L 190.509924 314.807219 
L 190.509924 271.526065 
L 185.5731 271.526065 
z
" clip-path="url(#pd6ce042678)" style="fill: #b8bec8; opacity: 0.55"/>
   </g>
   <g id="patch_23">
    <path d="M 192.919564 314.807219 
L 197.856388 314.807219 
L 197.856388 271.526065 
L 192.919564 271.526065 
z
" clip-path="url(#pd6ce042678)" style="fill: #b8bec8; opacity: 0.55"/>
   </g>
   <g id="patch_24">
    <path d="M 200.266028 314.807219 
L 205.202852 314.807219 
L 205.202852 271.526065 
L 200.266028 271.526065 
z
" clip-path="url(#pd6ce042678)" style="fill: #b8bec8; opacity: 0.55"/>
   </g>
   <g id="patch_25">
    <path d="M 207.612492 314.807219 
L 212.549316 314.807219 
L 212.549316 271.526065 
L 207.612492 271.526065 
z
" clip-path="url(#pd6ce042678)" style="fill: #b8bec8; opacity: 0.55"/>
   </g>
   <g id="patch_26">
    <path d="M 214.958956 314.807219 
L 219.89578 314.807219 
L 219.89578 271.526065 
L 214.958956 271.526065 
z
" clip-path="url(#pd6ce042678)" style="fill: #b8bec8; opacity: 0.55"/>
   </g>
   <g id="patch_27">
    <path d="M 222.30542 314.807219 
L 227.242244 314.807219 
L 227.242244 314.807219 
L 222.30542 314.807219 
z
" clip-path="url(#pd6ce042678)" style="fill: #b8bec8; opacity: 0.55"/>
   </g>
   <g id="patch_28">
    <path d="M 229.651884 314.807219 
L 234.588708 314.807219 
L 234.588708 271.526065 
L 229.651884 271.526065 
z
" clip-path="url(#pd6ce042678)" style="fill: #b8bec8; opacity: 0.55"/>
   </g>
   <g id="patch_29">
    <path d="M 236.998348 314.807219 
L 241.935172 314.807219 
L 241.935172 271.526065 
L 236.998348 271.526065 
z
" clip-path="url(#pd6ce042678)" style="fill: #b8bec8; opacity: 0.55"/>
   </g>
   <g id="patch_30">
    <path d="M 244.344812 314.807219 
L 249.281636 314.807219 
L 249.281636 271.526065 
L 244.344812 271.526065 
z
" clip-path="url(#pd6ce042678)" style="fill: #b8bec8; opacity: 0.55"/>
   </g>
   <g id="patch_31">
    <path d="M 251.691277 314.807219 
L 256.6281 314.807219 
L 256.6281 271.526065 
L 251.691277 271.526065 
z
" clip-path="url(#pd6ce042678)" style="fill: #b8bec8; opacity: 0.55"/>
   </g>
   <g id="patch_32">
    <path d="M 259.037741 314.807219 
L 263.974564 314.807219 
L 263.974564 314.807219 
L 259.037741 314.807219 
z
" clip-path="url(#pd6ce042678)" style="fill: #b8bec8; opacity: 0.55"/>
   </g>
   <g id="patch_33">
    <path d="M 266.384205 314.807219 
L 271.321028 314.807219 
L 271.321028 314.807219 
L 266.384205 314.807219 
z
" clip-path="url(#pd6ce042678)" style="fill: #b8bec8; opacity: 0.55"/>
   </g>
   <g id="patch_34">
    <path d="M 273.730669 314.807219 
L 278.667493 314.807219 
L 278.667493 314.807219 
L 273.730669 314.807219 
z
" clip-path="url(#pd6ce042678)" style="fill: #b8bec8; opacity: 0.55"/>
   </g>
   <g id="patch_35">
    <path d="M 281.077133 314.807219 
L 286.013957 314.807219 
L 286.013957 314.807219 
L 281.077133 314.807219 
z
" clip-path="url(#pd6ce042678)" style="fill: #b8bec8; opacity: 0.55"/>
   </g>
   <g id="patch_36">
    <path d="M 288.423597 314.807219 
L 293.360421 314.807219 
L 293.360421 314.807219 
L 288.423597 314.807219 
z
" clip-path="url(#pd6ce042678)" style="fill: #b8bec8; opacity: 0.55"/>
   </g>
   <g id="patch_37">
    <path d="M 295.770061 314.807219 
L 300.706885 314.807219 
L 300.706885 314.807219 
L 295.770061 314.807219 
z
" clip-path="url(#pd6ce042678)" style="fill: #b8bec8; opacity: 0.55"/>
   </g>
   <g id="patch_38">
    <path d="M 303.116525 314.807219 
L 308.053349 314.807219 
L 308.053349 314.807219 
L 303.116525 314.807219 
z
" clip-path="url(#pd6ce042678)" style="fill: #b8bec8; opacity: 0.55"/>
   </g>
   <g id="patch_39">
    <path d="M 310.462989 314.807219 
L 315.399813 314.807219 
L 315.399813 314.807219 
L 310.462989 314.807219 
z
" clip-path="url(#pd6ce042678)" style="fill: #b8bec8; opacity: 0.55"/>
   </g>
   <g id="patch_40">
    <path d="M 317.809453 314.807219 
L 322.746277 314.807219 
L 322.746277 314.807219 
L 317.809453 314.807219 
z
" clip-path="url(#pd6ce042678)" style="fill: #b8bec8; opacity: 0.55"/>
   </g>
   <g id="patch_41">
    <path d="M 325.155917 314.807219 
L 330.092741 314.807219 
L 330.092741 314.807219 
L 325.155917 314.807219 
z
" clip-path="url(#pd6ce042678)" style="fill: #b8bec8; opacity: 0.55"/>
   </g>
   <g id="patch_42">
    <path d="M 332.502381 314.807219 
L 337.439205 314.807219 
L 337.439205 314.807219 
L 332.502381 314.807219 
z
" clip-path="url(#pd6ce042678)" style="fill: #b8bec8; opacity: 0.55"/>
   </g>
   <g id="patch_43">
    <path d="M 339.848845 314.807219 
L 344.785669 314.807219 
L 344.785669 314.807219 
L 339.848845 314.807219 
z
" clip-path="url(#pd6ce042678)" style="fill: #b8bec8; opacity: 0.55"/>
   </g>
   <g id="patch_44">
    <path d="M 347.195309 314.807219 
L 352.132133 314.807219 
L 352.132133 314.807219 
L 347.195309 314.807219 
z
" clip-path="url(#pd6ce042678)" style="fill: #b8bec8; opacity: 0.55"/>
   </g>
   <g id="patch_45">
    <path d="M 354.541773 314.807219 
L 359.478597 314.807219 
L 359.478597 314.807219 
L 354.541773 314.807219 
z
" clip-path="url(#pd6ce042678)" style="fill: #b8bec8; opacity: 0.55"/>
   </g>
   <g id="patch_46">
    <path d="M 361.888237 314.807219 
L 366.825061 314.807219 
L 366.825061 314.807219 
L 361.888237 314.807219 
z
" clip-path="url(#pd6ce042678)" style="fill: #b8bec8; opacity: 0.55"/>
   </g>
   <g id="patch_47">
    <path d="M 369.234701 314.807219 
L 374.171525 314.807219 
L 374.171525 314.807219 
L 369.234701 314.807219 
z
" clip-path="url(#pd6ce042678)" style="fill: #b8bec8; opacity: 0.55"/>
   </g>
   <g id="patch_48">
    <path d="M 376.581165 314.807219 
L 381.517989 314.807219 
L 381.517989 314.807219 
L 376.581165 314.807219 
z
" clip-path="url(#pd6ce042678)" style="fill: #b8bec8; opacity: 0.55"/>
   </g>
   <g id="patch_49">
    <path d="M 383.92763 314.807219 
L 388.864453 314.807219 
L 388.864453 314.807219 
L 383.92763 314.807219 
z
" clip-path="url(#pd6ce042678)" style="fill: #b8bec8; opacity: 0.55"/>
   </g>
   <g id="patch_50">
    <path d="M 391.274094 314.807219 
L 396.210917 314.807219 
L 396.210917 314.807219 
L 391.274094 314.807219 
z
" clip-path="url(#pd6ce042678)" style="fill: #b8bec8; opacity: 0.55"/>
   </g>
   <g id="patch_51">
    <path d="M 398.620558 314.807219 
L 403.557381 314.807219 
L 403.557381 314.807219 
L 398.620558 314.807219 
z
" clip-path="url(#pd6ce042678)" style="fill: #b8bec8; opacity: 0.55"/>
   </g>
   <g id="patch_52">
    <path d="M 405.967022 314.807219 
L 410.903846 314.807219 
L 410.903846 314.807219 
L 405.967022 314.807219 
z
" clip-path="url(#pd6ce042678)" style="fill: #b8bec8; opacity: 0.55"/>
   </g>
   <g id="patch_53">
    <path d="M 413.313486 314.807219 
L 418.25031 314.807219 
L 418.25031 314.807219 
L 413.313486 314.807219 
z
" clip-path="url(#pd6ce042678)" style="fill: #b8bec8; opacity: 0.55"/>
   </g>
   <g id="patch_54">
    <path d="M 420.65995 314.807219 
L 425.596774 314.807219 
L 425.596774 314.807219 
L 420.65995 314.807219 
z
" clip-path="url(#pd6ce042678)" style="fill: #b8bec8; opacity: 0.55"/>
   </g>
   <g id="patch_55">
    <path d="M 428.006414 314.807219 
L 432.943238 314.807219 
L 432.943238 314.807219 
L 428.006414 314.807219 
z
" clip-path="url(#pd6ce042678)" style="fill: #b8bec8; opacity: 0.55"/>
   </g>
   <g id="patch_56">
    <path d="M 435.352878 314.807219 
L 440.289702 314.807219 
L 440.289702 314.807219 
L 435.352878 314.807219 
z
" clip-path="url(#pd6ce042678)" style="fill: #b8bec8; opacity: 0.55"/>
   </g>
   <g id="patch_57">
    <path d="M 442.699342 314.807219 
L 447.636166 314.807219 
L 447.636166 314.807219 
L 442.699342 314.807219 
z
" clip-path="url(#pd6ce042678)" style="fill: #b8bec8; opacity: 0.55"/>
   </g>
   <g id="patch_58">
    <path d="M 450.045806 314.807219 
L 454.98263 314.807219 
L 454.98263 314.807219 
L 450.045806 314.807219 
z
" clip-path="url(#pd6ce042678)" style="fill: #b8bec8; opacity: 0.55"/>
   </g>
   <g id="patch_59">
    <path d="M 457.39227 314.807219 
L 462.329094 314.807219 
L 462.329094 314.807219 
L 457.39227 314.807219 
z
" clip-path="url(#pd6ce042678)" style="fill: #b8bec8; opacity: 0.55"/>
   </g>
   <g id="patch_60">
    <path d="M 464.738734 314.807219 
L 469.675558 314.807219 
L 469.675558 314.807219 
L 464.738734 314.807219 
z
" clip-path="url(#pd6ce042678)" style="fill: #b8bec8; opacity: 0.55"/>
   </g>
   <g id="patch_61">
    <path d="M 472.085198 314.807219 
L 477.022022 314.807219 
L 477.022022 314.807219 
L 472.085198 314.807219 
z
" clip-path="url(#pd6ce042678)" style="fill: #b8bec8; opacity: 0.55"/>
   </g>
   <g id="patch_62">
    <path d="M 479.431662 314.807219 
L 484.368486 314.807219 
L 484.368486 314.807219 
L 479.431662 314.807219 
z
" clip-path="url(#pd6ce042678)" style="fill: #b8bec8; opacity: 0.55"/>
   </g>
   <g id="patch_63">
    <path d="M 486.778126 314.807219 
L 491.71495 314.807219 
L 491.71495 314.807219 
L 486.778126 314.807219 
z
" clip-path="url(#pd6ce042678)" style="fill: #b8bec8; opacity: 0.55"/>
   </g>
   <g id="patch_64">
    <path d="M 494.12459 314.807219 
L 499.061414 314.807219 
L 499.061414 314.807219 
L 494.12459 314.807219 
z
" clip-path="url(#pd6ce042678)" style="fill: #b8bec8; opacity: 0.55"/>
   </g>
   <g id="patch_65">
    <path d="M 501.471054 314.807219 
L 506.407878 314.807219 
L 506.407878 314.807219 
L 501.471054 314.807219 
z
" clip-path="url(#pd6ce042678)" style="fill: #b8bec8; opacity: 0.55"/>
   </g>
   <g id="patch_66">
    <path d="M 508.817518 314.807219 
L 513.754342 314.807219 
L 513.754342 314.807219 
L 508.817518 314.807219 
z
" clip-path="url(#pd6ce042678)" style="fill: #b8bec8; opacity: 0.55"/>
   </g>
   <g id="patch_67">
    <path d="M 516.163983 314.807219 
L 521.100806 314.807219 
L 521.100806 314.807219 
L 516.163983 314.807219 
z
" clip-path="url(#pd6ce042678)" style="fill: #b8bec8; opacity: 0.55"/>
   </g>
   <g id="patch_68">
    <path d="M 523.510447 314.807219 
L 528.44727 314.807219 
L 528.44727 314.807219 
L 523.510447 314.807219 
z
" clip-path="url(#pd6ce042678)" style="fill: #b8bec8; opacity: 0.55"/>
   </g>
   <g id="patch_69">
    <path d="M 530.856911 314.807219 
L 535.793734 314.807219 
L 535.793734 314.807219 
L 530.856911 314.807219 
z
" clip-path="url(#pd6ce042678)" style="fill: #b8bec8; opacity: 0.55"/>
   </g>
   <g id="patch_70">
    <path d="M 538.203375 314.807219 
L 543.140199 314.807219 
L 543.140199 314.807219 
L 538.203375 314.807219 
z
" clip-path="url(#pd6ce042678)" style="fill: #b8bec8; opacity: 0.55"/>
   </g>
   <g id="patch_71">
    <path d="M 545.549839 314.807219 
L 550.486663 314.807219 
L 550.486663 314.807219 
L 545.549839 314.807219 
z
" clip-path="url(#pd6ce042678)" style="fill: #b8bec8; opacity: 0.55"/>
   </g>
   <g id="patch_72">
    <path d="M 552.896303 314.807219 
L 557.833127 314.807219 
L 557.833127 314.807219 
L 552.896303 314.807219 
z
" clip-path="url(#pd6ce042678)" style="fill: #b8bec8; opacity: 0.55"/>
   </g>
   <g id="patch_73">
    <path d="M 560.242767 314.807219 
L 565.179591 314.807219 
L 565.179591 314.807219 
L 560.242767 314.807219 
z
" clip-path="url(#pd6ce042678)" style="fill: #b8bec8; opacity: 0.55"/>
   </g>
   <g id="patch_74">
    <path d="M 567.589231 314.807219 
L 572.526055 314.807219 
L 572.526055 314.807219 
L 567.589231 314.807219 
z
" clip-path="url(#pd6ce042678)" style="fill: #b8bec8; opacity: 0.55"/>
   </g>
   <g id="patch_75">
    <path d="M 574.935695 314.807219 
L 579.872519 314.807219 
L 579.872519 314.807219 
L 574.935695 314.807219 
z
" clip-path="url(#pd6ce042678)" style="fill: #b8bec8; opacity: 0.55"/>
   </g>
   <g id="patch_76">
    <path d="M 582.282159 314.807219 
L 587.218983 314.807219 
L 587.218983 314.807219 
L 582.282159 314.807219 
z
" clip-path="url(#pd6ce042678)" style="fill: #b8bec8; opacity: 0.55"/>
   </g>
   <g id="patch_77">
    <path d="M 589.628623 314.807219 
L 594.565447 314.807219 
L 594.565447 314.807219 
L 589.628623 314.807219 
z
" clip-path="url(#pd6ce042678)" style="fill: #b8bec8; opacity: 0.55"/>
   </g>
   <g id="patch_78">
    <path d="M 596.975087 314.807219 
L 601.911911 314.807219 
L 601.911911 271.526065 
L 596.975087 271.526065 
z
" clip-path="url(#pd6ce042678)" style="fill: #b8bec8; opacity: 0.55"/>
   </g>
   <g id="patch_79">
    <path d="M 604.321551 314.807219 
L 609.258375 314.807219 
L 609.258375 271.526065 
L 604.321551 271.526065 
z
" clip-path="url(#pd6ce042678)" style="fill: #b8bec8; opacity: 0.55"/>
   </g>
   <g id="patch_80">
    <path d="M 611.668015 314.807219 
L 616.604839 314.807219 
L 616.604839 271.526065 
L 611.668015 271.526065 
z
" clip-path="url(#pd6ce042678)" style="fill: #b8bec8; opacity: 0.55"/>
   </g>
   <g id="patch_81">
    <path d="M 619.014479 314.807219 
L 623.951303 314.807219 
L 623.951303 314.807219 
L 619.014479 314.807219 
z
" clip-path="url(#pd6ce042678)" style="fill: #b8bec8; opacity: 0.55"/>
   </g>
   <g id="patch_82">
    <path d="M 626.360943 314.807219 
L 631.297767 314.807219 
L 631.297767 314.807219 
L 626.360943 314.807219 
z
" clip-path="url(#pd6ce042678)" style="fill: #b8bec8; opacity: 0.55"/>
   </g>
   <g id="patch_83">
    <path d="M 633.707407 314.807219 
L 638.644231 314.807219 
L 638.644231 314.807219 
L 633.707407 314.807219 
z
" clip-path="url(#pd6ce042678)" style="fill: #b8bec8; opacity: 0.55"/>
   </g>
   <g id="patch_84">
    <path d="M 641.053871 314.807219 
L 645.990695 314.807219 
L 645.990695 314.807219 
L 641.053871 314.807219 
z
" clip-path="url(#pd6ce042678)" style="fill: #b8bec8; opacity: 0.55"/>
   </g>
   <g id="patch_85">
    <path d="M 648.400336 314.807219 
L 653.337159 314.807219 
L 653.337159 314.807219 
L 648.400336 314.807219 
z
" clip-path="url(#pd6ce042678)" style="fill: #b8bec8; opacity: 0.55"/>
   </g>
   <g id="patch_86">
    <path d="M 655.7468 314.807219 
L 660.683623 314.807219 
L 660.683623 314.807219 
L 655.7468 314.807219 
z
" clip-path="url(#pd6ce042678)" style="fill: #b8bec8; opacity: 0.55"/>
   </g>
   <g id="patch_87">
    <path d="M 663.093264 314.807219 
L 668.030087 314.807219 
L 668.030087 271.526065 
L 663.093264 271.526065 
z
" clip-path="url(#pd6ce042678)" style="fill: #b8bec8; opacity: 0.55"/>
   </g>
   <g id="patch_88">
    <path d="M 670.439728 314.807219 
L 675.376552 314.807219 
L 675.376552 271.526065 
L 670.439728 271.526065 
z
" clip-path="url(#pd6ce042678)" style="fill: #b8bec8; opacity: 0.55"/>
   </g>
   <g id="patch_89">
    <path d="M 677.786192 314.807219 
L 682.723016 314.807219 
L 682.723016 314.807219 
L 677.786192 314.807219 
z
" clip-path="url(#pd6ce042678)" style="fill: #b8bec8; opacity: 0.55"/>
   </g>
   <g id="patch_90">
    <path d="M 685.132656 314.807219 
L 690.06948 314.807219 
L 690.06948 314.807219 
L 685.132656 314.807219 
z
" clip-path="url(#pd6ce042678)" style="fill: #b8bec8; opacity: 0.55"/>
   </g>
   <g id="patch_91">
    <path d="M 692.47912 314.807219 
L 697.415944 314.807219 
L 697.415944 314.807219 
L 692.47912 314.807219 
z
" clip-path="url(#pd6ce042678)" style="fill: #b8bec8; opacity: 0.55"/>
   </g>
   <g id="patch_92">
    <path d="M 699.825584 314.807219 
L 704.762408 314.807219 
L 704.762408 271.526065 
L 699.825584 271.526065 
z
" clip-path="url(#pd6ce042678)" style="fill: #b8bec8; opacity: 0.55"/>
   </g>
   <g id="patch_93">
    <path d="M 707.172048 314.807219 
L 712.108872 314.807219 
L 712.108872 271.526065 
L 707.172048 271.526065 
z
" clip-path="url(#pd6ce042678)" style="fill: #b8bec8; opacity: 0.55"/>
   </g>
   <g id="patch_94">
    <path d="M 714.518512 314.807219 
L 719.455336 314.807219 
L 719.455336 271.526065 
L 714.518512 271.526065 
z
" clip-path="url(#pd6ce042678)" style="fill: #b8bec8; opacity: 0.55"/>
   </g>
   <g id="patch_95">
    <path d="M 721.864976 314.807219 
L 726.8018 314.807219 
L 726.8018 271.526065 
L 721.864976 271.526065 
z
" clip-path="url(#pd6ce042678)" style="fill: #b8bec8; opacity: 0.55"/>
   </g>
   <g id="patch_96">
    <path d="M 729.21144 314.807219 
L 734.148264 314.807219 
L 734.148264 271.526065 
L 729.21144 271.526065 
z
" clip-path="url(#pd6ce042678)" style="fill: #b8bec8; opacity: 0.55"/>
   </g>
   <g id="patch_97">
    <path d="M 736.557904 314.807219 
L 741.494728 314.807219 
L 741.494728 271.526065 
L 736.557904 271.526065 
z
" clip-path="url(#pd6ce042678)" style="fill: #b8bec8; opacity: 0.55"/>
   </g>
   <g id="patch_98">
    <path d="M 743.904368 314.807219 
L 748.841192 314.807219 
L 748.841192 271.526065 
L 743.904368 271.526065 
z
" clip-path="url(#pd6ce042678)" style="fill: #b8bec8; opacity: 0.55"/>
   </g>
   <g id="patch_99">
    <path d="M 751.250832 314.807219 
L 756.187656 314.807219 
L 756.187656 228.244912 
L 751.250832 228.244912 
z
" clip-path="url(#pd6ce042678)" style="fill: #b8bec8; opacity: 0.55"/>
   </g>
   <g id="patch_100">
    <path d="M 758.597296 314.807219 
L 763.53412 314.807219 
L 763.53412 271.526065 
L 758.597296 271.526065 
z
" clip-path="url(#pd6ce042678)" style="fill: #b8bec8; opacity: 0.55"/>
   </g>
   <g id="patch_101">
    <path d="M 765.94376 314.807219 
L 770.880584 314.807219 
L 770.880584 271.526065 
L 765.94376 271.526065 
z
" clip-path="url(#pd6ce042678)" style="fill: #b8bec8; opacity: 0.55"/>
   </g>
   <g id="patch_102">
    <path d="M 773.290224 314.807219 
L 778.227048 314.807219 
L 778.227048 271.526065 
L 773.290224 271.526065 
z
" clip-path="url(#pd6ce042678)" style="fill: #b8bec8; opacity: 0.55"/>
   </g>
   <g id="matplotlib.axis_3">
    <g id="xtick_10">
     <g id="line2d_28">
      <g>
       <use xlink:href="#m67ae6a1125" x="77.844551" y="314.807219" style="fill: #252525; stroke: #252525; stroke-width: 0.8"/>
      </g>
     </g>
     <g id="text_15">
      <text style="font-size: 10.2px; font-family: 'Arial Unicode MS', 'Arial', 'Helvetica', 'DejaVu Sans', 'Bitstream Vera Sans', 'Computer Modern Sans Serif', 'Lucida Grande', 'Verdana', 'Geneva', 'Lucid', 'Avant Garde', sans-serif; fill: #252525" transform="translate(40.448886 345.55319) rotate(-25)">07-01 00</text>
     </g>
    </g>
    <g id="xtick_11">
     <g id="line2d_29">
      <g>
       <use xlink:href="#m67ae6a1125" x="166.00212" y="314.807219" style="fill: #252525; stroke: #252525; stroke-width: 0.8"/>
      </g>
     </g>
     <g id="text_16">
      <text style="font-size: 10.2px; font-family: 'Arial Unicode MS', 'Arial', 'Helvetica', 'DejaVu Sans', 'Bitstream Vera Sans', 'Computer Modern Sans Serif', 'Lucida Grande', 'Verdana', 'Geneva', 'Lucid', 'Avant Garde', sans-serif; fill: #252525" transform="translate(128.606454 345.55319) rotate(-25)">07-01 03</text>
     </g>
    </g>
    <g id="xtick_12">
     <g id="line2d_30">
      <g>
       <use xlink:href="#m67ae6a1125" x="254.159688" y="314.807219" style="fill: #252525; stroke: #252525; stroke-width: 0.8"/>
      </g>
     </g>
     <g id="text_17">
      <text style="font-size: 10.2px; font-family: 'Arial Unicode MS', 'Arial', 'Helvetica', 'DejaVu Sans', 'Bitstream Vera Sans', 'Computer Modern Sans Serif', 'Lucida Grande', 'Verdana', 'Geneva', 'Lucid', 'Avant Garde', sans-serif; fill: #252525" transform="translate(216.764023 345.55319) rotate(-25)">07-01 06</text>
     </g>
    </g>
    <g id="xtick_13">
     <g id="line2d_31">
      <g>
       <use xlink:href="#m67ae6a1125" x="342.317257" y="314.807219" style="fill: #252525; stroke: #252525; stroke-width: 0.8"/>
      </g>
     </g>
     <g id="text_18">
      <text style="font-size: 10.2px; font-family: 'Arial Unicode MS', 'Arial', 'Helvetica', 'DejaVu Sans', 'Bitstream Vera Sans', 'Computer Modern Sans Serif', 'Lucida Grande', 'Verdana', 'Geneva', 'Lucid', 'Avant Garde', sans-serif; fill: #252525" transform="translate(304.921592 345.55319) rotate(-25)">07-01 09</text>
     </g>
    </g>
    <g id="xtick_14">
     <g id="line2d_32">
      <g>
       <use xlink:href="#m67ae6a1125" x="430.474826" y="314.807219" style="fill: #252525; stroke: #252525; stroke-width: 0.8"/>
      </g>
     </g>
     <g id="text_19">
      <text style="font-size: 10.2px; font-family: 'Arial Unicode MS', 'Arial', 'Helvetica', 'DejaVu Sans', 'Bitstream Vera Sans', 'Computer Modern Sans Serif', 'Lucida Grande', 'Verdana', 'Geneva', 'Lucid', 'Avant Garde', sans-serif; fill: #252525" transform="translate(393.07916 345.55319) rotate(-25)">07-01 12</text>
     </g>
    </g>
    <g id="xtick_15">
     <g id="line2d_33">
      <g>
       <use xlink:href="#m67ae6a1125" x="518.632394" y="314.807219" style="fill: #252525; stroke: #252525; stroke-width: 0.8"/>
      </g>
     </g>
     <g id="text_20">
      <text style="font-size: 10.2px; font-family: 'Arial Unicode MS', 'Arial', 'Helvetica', 'DejaVu Sans', 'Bitstream Vera Sans', 'Computer Modern Sans Serif', 'Lucida Grande', 'Verdana', 'Geneva', 'Lucid', 'Avant Garde', sans-serif; fill: #252525" transform="translate(481.236729 345.55319) rotate(-25)">07-01 15</text>
     </g>
    </g>
    <g id="xtick_16">
     <g id="line2d_34">
      <g>
       <use xlink:href="#m67ae6a1125" x="606.789963" y="314.807219" style="fill: #252525; stroke: #252525; stroke-width: 0.8"/>
      </g>
     </g>
     <g id="text_21">
      <text style="font-size: 10.2px; font-family: 'Arial Unicode MS', 'Arial', 'Helvetica', 'DejaVu Sans', 'Bitstream Vera Sans', 'Computer Modern Sans Serif', 'Lucida Grande', 'Verdana', 'Geneva', 'Lucid', 'Avant Garde', sans-serif; fill: #252525" transform="translate(569.394298 345.55319) rotate(-25)">07-01 18</text>
     </g>
    </g>
    <g id="xtick_17">
     <g id="line2d_35">
      <g>
       <use xlink:href="#m67ae6a1125" x="694.947532" y="314.807219" style="fill: #252525; stroke: #252525; stroke-width: 0.8"/>
      </g>
     </g>
     <g id="text_22">
      <text style="font-size: 10.2px; font-family: 'Arial Unicode MS', 'Arial', 'Helvetica', 'DejaVu Sans', 'Bitstream Vera Sans', 'Computer Modern Sans Serif', 'Lucida Grande', 'Verdana', 'Geneva', 'Lucid', 'Avant Garde', sans-serif; fill: #252525" transform="translate(657.551866 345.55319) rotate(-25)">07-01 21</text>
     </g>
    </g>
    <g id="xtick_18">
     <g id="line2d_36">
      <g>
       <use xlink:href="#m67ae6a1125" x="783.1051" y="314.807219" style="fill: #252525; stroke: #252525; stroke-width: 0.8"/>
      </g>
     </g>
     <g id="text_23">
      <text style="font-size: 10.2px; font-family: 'Arial Unicode MS', 'Arial', 'Helvetica', 'DejaVu Sans', 'Bitstream Vera Sans', 'Computer Modern Sans Serif', 'Lucida Grande', 'Verdana', 'Geneva', 'Lucid', 'Avant Garde', sans-serif; fill: #252525" transform="translate(745.709435 345.55319) rotate(-25)">07-02 00</text>
     </g>
    </g>
    <g id="text_24">
     <text style="font-size: 10.2px; font-family: 'Arial Unicode MS', 'Arial', 'Helvetica', 'DejaVu Sans', 'Bitstream Vera Sans', 'Computer Modern Sans Serif', 'Lucida Grande', 'Verdana', 'Geneva', 'Lucid', 'Avant Garde', sans-serif; text-anchor: middle" x="426.801594" y="359.950578" transform="rotate(-0 426.801594 359.950578)">时间</text>
    </g>
   </g>
   <g id="matplotlib.axis_4">
    <g id="ytick_8">
     <g id="line2d_37">
      <path d="M 40.233594 314.807219 
L 813.369594 314.807219 
" clip-path="url(#pd6ce042678)" style="fill: none; stroke: #d9dee7; stroke-opacity: 0.7; stroke-width: 0.8; stroke-linecap: square"/>
     </g>
     <g id="line2d_38">
      <g>
       <use xlink:href="#mea6de2d788" x="40.233594" y="314.807219" style="fill: #252525; stroke: #252525; stroke-width: 0.8"/>
      </g>
     </g>
     <g id="text_25">
      <text style="font-size: 10.2px; font-family: 'Arial Unicode MS', 'Arial', 'Helvetica', 'DejaVu Sans', 'Bitstream Vera Sans', 'Computer Modern Sans Serif', 'Lucida Grande', 'Verdana', 'Geneva', 'Lucid', 'Avant Garde', sans-serif; text-anchor: end; fill: #252525" x="33.233594" y="318.520158" transform="rotate(-0 33.233594 318.520158)">0</text>
     </g>
    </g>
    <g id="ytick_9">
     <g id="line2d_39">
      <path d="M 40.233594 271.526065 
L 813.369594 271.526065 
" clip-path="url(#pd6ce042678)" style="fill: none; stroke: #d9dee7; stroke-opacity: 0.7; stroke-width: 0.8; stroke-linecap: square"/>
     </g>
     <g id="line2d_40">
      <g>
       <use xlink:href="#mea6de2d788" x="40.233594" y="271.526065" style="fill: #252525; stroke: #252525; stroke-width: 0.8"/>
      </g>
     </g>
     <g id="text_26">
      <text style="font-size: 10.2px; font-family: 'Arial Unicode MS', 'Arial', 'Helvetica', 'DejaVu Sans', 'Bitstream Vera Sans', 'Computer Modern Sans Serif', 'Lucida Grande', 'Verdana', 'Geneva', 'Lucid', 'Avant Garde', sans-serif; text-anchor: end; fill: #252525" x="33.233594" y="275.239005" transform="rotate(-0 33.233594 275.239005)">1</text>
     </g>
    </g>
    <g id="ytick_10">
     <g id="line2d_41">
      <path d="M 40.233594 228.244912 
L 813.369594 228.244912 
" clip-path="url(#pd6ce042678)" style="fill: none; stroke: #d9dee7; stroke-opacity: 0.7; stroke-width: 0.8; stroke-linecap: square"/>
     </g>
     <g id="line2d_42">
      <g>
       <use xlink:href="#mea6de2d788" x="40.233594" y="228.244912" style="fill: #252525; stroke: #252525; stroke-width: 0.8"/>
      </g>
     </g>
     <g id="text_27">
      <text style="font-size: 10.2px; font-family: 'Arial Unicode MS', 'Arial', 'Helvetica', 'DejaVu Sans', 'Bitstream Vera Sans', 'Computer Modern Sans Serif', 'Lucida Grande', 'Verdana', 'Geneva', 'Lucid', 'Avant Garde', sans-serif; text-anchor: end; fill: #252525" x="33.233594" y="231.957852" transform="rotate(-0 33.233594 231.957852)">2</text>
     </g>
    </g>
    <g id="text_28">
     <text style="font-size: 10.2px; font-family: 'Arial Unicode MS', 'Arial', 'Helvetica', 'DejaVu Sans', 'Bitstream Vera Sans', 'Computer Modern Sans Serif', 'Lucida Grande', 'Verdana', 'Geneva', 'Lucid', 'Avant Garde', sans-serif; text-anchor: middle" x="21.419836" y="269.362008" transform="rotate(-90 21.419836 269.362008)">事件状态</text>
    </g>
   </g>
   <g id="line2d_43">
    <path d="M 77.844551 300.380168 
L 85.191015 300.380168 
L 92.537479 300.380168 
L 99.883943 314.807219 
L 107.230407 314.807219 
L 114.576871 314.807219 
L 121.923335 314.807219 
L 129.2698 314.807219 
L 136.616264 300.380168 
L 143.962728 300.380168 
L 151.309192 300.380168 
L 158.655656 285.953117 
L 166.00212 300.380168 
L 173.348584 300.380168 
L 180.695048 300.380168 
L 188.041512 300.380168 
L 195.387976 300.380168 
L 202.73444 300.380168 
L 210.080904 300.380168 
L 217.427368 300.380168 
L 224.773832 314.807219 
L 232.120296 300.380168 
L 239.46676 300.380168 
L 246.813224 300.380168 
L 254.159688 300.380168 
L 261.506153 314.807219 
L 268.852617 314.807219 
L 276.199081 314.807219 
L 283.545545 314.807219 
L 290.892009 314.807219 
L 298.238473 314.807219 
L 305.584937 314.807219 
L 312.931401 314.807219 
L 320.277865 314.807219 
L 327.624329 314.807219 
L 334.970793 314.807219 
L 342.317257 314.807219 
L 349.663721 314.807219 
L 357.010185 314.807219 
L 364.356649 314.807219 
L 371.703113 314.807219 
L 379.049577 314.807219 
L 386.396041 314.807219 
L 393.742506 314.807219 
L 401.08897 314.807219 
L 408.435434 314.807219 
L 415.781898 314.807219 
L 423.128362 314.807219 
L 430.474826 314.807219 
L 437.82129 314.807219 
L 445.167754 314.807219 
L 452.514218 314.807219 
L 459.860682 314.807219 
L 467.207146 314.807219 
L 474.55361 314.807219 
L 481.900074 314.807219 
L 489.246538 314.807219 
L 496.593002 314.807219 
L 503.939466 314.807219 
L 511.28593 314.807219 
L 518.632394 314.807219 
L 525.978858 314.807219 
L 533.325323 314.807219 
L 540.671787 314.807219 
L 548.018251 314.807219 
L 555.364715 314.807219 
L 562.711179 314.807219 
L 570.057643 314.807219 
L 577.404107 314.807219 
L 584.750571 314.807219 
L 592.097035 314.807219 
L 599.443499 300.380168 
L 606.789963 300.380168 
L 614.136427 300.380168 
L 621.482891 314.807219 
L 628.829355 314.807219 
L 636.175819 314.807219 
L 643.522283 314.807219 
L 650.868747 314.807219 
L 658.215211 314.807219 
L 665.561676 300.380168 
L 672.90814 300.380168 
L 680.254604 314.807219 
L 687.601068 314.807219 
L 694.947532 314.807219 
L 702.293996 300.380168 
L 709.64046 300.380168 
L 716.986924 300.380168 
L 724.333388 300.380168 
L 731.679852 300.380168 
L 739.026316 300.380168 
L 746.37278 300.380168 
L 753.719244 285.953117 
L 761.065708 300.380168 
L 768.412172 300.380168 
L 775.758636 300.380168 
" clip-path="url(#pd6ce042678)" style="fill: none; stroke: #7b5ba7; stroke-width: 1.9; stroke-linecap: square"/>
   </g>
   <g id="patch_103">
    <path d="M 40.233594 314.807219 
L 40.233594 223.916797 
" style="fill: none; stroke: #252525; stroke-width: 1.05; stroke-linejoin: miter; stroke-linecap: square"/>
   </g>
   <g id="patch_104">
    <path d="M 40.233594 314.807219 
L 813.369594 314.807219 
" style="fill: none; stroke: #252525; stroke-width: 1.05; stroke-linejoin: miter; stroke-linecap: square"/>
   </g>
   <g id="legend_2">
    <g id="line2d_44">
     <path d="M 48.063594 236.008437 
L 56.763594 236.008437 
L 65.463594 236.008437 
" style="fill: none; stroke: #7b5ba7; stroke-width: 1.9; stroke-linecap: square"/>
    </g>
    <g id="text_29">
     <text style="font-size: 8.7px; font-family: 'Arial Unicode MS', 'Arial', 'Helvetica', 'DejaVu Sans', 'Bitstream Vera Sans', 'Computer Modern Sans Serif', 'Lucida Grande', 'Verdana', 'Geneva', 'Lucid', 'Avant Garde', sans-serif; text-anchor: start" x="72.423594" y="239.053437" transform="rotate(-0 72.423594 239.053437)">占用率</text>
    </g>
    <g id="patch_105">
     <path d="M 48.063594 252.468769 
L 65.463594 252.468769 
L 65.463594 246.378769 
L 48.063594 246.378769 
z
" style="fill: #b8bec8; opacity: 0.55"/>
    </g>
    <g id="text_30">
     <text style="font-size: 8.7px; font-family: 'Arial Unicode MS', 'Arial', 'Helvetica', 'DejaVu Sans', 'Bitstream Vera Sans', 'Computer Modern Sans Serif', 'Lucida Grande', 'Verdana', 'Geneva', 'Lucid', 'Avant Garde', sans-serif; text-anchor: start" x="72.423594" y="252.468769" transform="rotate(-0 72.423594 252.468769)">活跃会话数</text>
    </g>
   </g>
  </g>
  <g id="text_31">
   <text style="font-size: 8.8px; font-family: 'Arial Unicode MS', 'Arial', 'Helvetica', 'DejaVu Sans', 'Bitstream Vera Sans', 'Computer Modern Sans Serif', 'Lucida Grande', 'Verdana', 'Geneva', 'Lucid', 'Avant Garde', sans-serif; text-anchor: end; fill: #68717d" x="813.369594" y="377.110078" transform="rotate(-0 813.369594 377.110078)">注：本地未保存冻结 V6 全量逐样本预测，本图先使用本地可用全量预测源展示事件日案例。</text>
  </g>
 </g>
 <defs>
  <clipPath id="pf51dfad8bc">
   <rect x="40.233594" y="23.423219" width="773.136" height="176.434349"/>
  </clipPath>
  <clipPath id="pd6ce042678">
   <rect x="40.233594" y="223.916797" width="773.136" height="90.890422"/>
  </clipPath>
 </defs>
</svg>
